# xmcd
#
# Track frame offsets:
#	150
#	11165
#	27746
#	46849
#	56589
#	71178
#	81984
#	93849
#	112478
#	126524
#	142514
#	155718
#	169137
#	192726
#	215459
#	228355
#	244860
#	263461
#	279047
#	289073
#
# Disc length: 4000 seconds
#
# Revision: 1
# Processed by: cddbd v1.5.2PL0 Copyright (c) Steve Scherf et al.
# Submitted via: audiograbber 1.83.01
#
DISCID=2b0f9e14
DTITLE=Jerry Lee Lewis - Golden Stars of Country - CD1
DYEAR=2007
DGENRE=Country
TTITLE0=Brown Eyed Handsome Man
TTITLE1=Come on in
TTITLE2=Georgia on My Mind
TTITLE3=High School Confidential
TTITLE4=Honky Tonk Feeling
TTITLE5=I Love You So Much it Hurts
TTITLE6=Ive Forgotton More than Youll
TTITLE7=Johnny B Goode
TTITLE8=Life is Like A Railroad
TTITLE9=Lucille
TTITLE10=Medley Good Golly Miss Molly
TTITLE11=Memphis Tennesse
TTITLE12=Mexicali Rose
TTITLE13=My Lovely Fraulein
TTITLE14=One Has My Heart and One Has M
TTITLE15=Pick Me Up on My Way Down
TTITLE16=Please Release Me
TTITLE17=Rockin My Life Away
TTITLE18=Rocking My Life Away
TTITLE19=Roll Over Beethoven
EXTD=
EXTT0=
EXTT1=
EXTT2=
EXTT3=
EXTT4=
EXTT5=
EXTT6=
EXTT7=
EXTT8=
EXTT9=
EXTT10=
EXTT11=
EXTT12=
EXTT13=
EXTT14=
EXTT15=
EXTT16=
EXTT17=
EXTT18=
EXTT19=
PLAYORDER=
